<svg width="145" height="80" viewBox="0 0 145 80" fill="none" xmlns="http://www.w3.org/2000/svg">
<path d="M72.4822 75.0976L67.1297 62.9333L59.4681 80.0002H85.824L77.9201 62.7065L72.4822 75.0976Z" fill="#6FB1C8"/>
<path d="M86.1376 27.4036C84.1491 27.4036 82.346 28.5726 81.5549 30.3862L72.4821 51.0026L63.4094 30.3862C62.6112 28.5726 60.808 27.4036 58.8267 27.4036L17.3757 27.3682C21.2529 32.4479 27.3037 35.4376 33.7252 35.4376H55.0779C56.2895 35.4376 57.387 36.1531 57.8717 37.2584L72.4821 70.5208L87.0926 37.2584C87.5773 36.1531 88.6748 35.4376 89.8935 35.4376H111.645C118.067 35.4376 124.111 32.455 127.995 27.3682L86.1376 27.4036Z" fill="#FFCD00"/>
<path d="M9.10838 10.7758L3.57066 0H0L9.10838 17.7471L18.2096 0H14.639L9.10838 10.7758Z" fill="#94989B"/>
<path d="M59.4538 45.441L56.2252 38.0871C56.0328 37.655 55.6052 37.3716 55.1277 37.3716H25.0159V37.3787C28.9001 42.4584 34.9439 45.4481 41.3653 45.4481H59.4538V45.441Z" fill="#4C86A0"/>
<path d="M63.8441 55.4518L60.302 47.3823H32.6561V47.3894C36.5404 52.4691 42.5841 55.4518 49.0056 55.4518H63.8441Z" fill="#6FB1C8"/>
<path d="M89.8294 37.3718C89.3519 37.3718 88.9172 37.6552 88.7319 38.0874L85.5033 45.4413H103.998C110.419 45.4413 116.463 42.4586 120.347 37.3718V37.3647H89.8294V37.3718Z" fill="#4C86A0"/>
<path d="M84.6552 47.3823L81.113 55.4518H96.3507C102.772 55.4518 108.816 52.4691 112.7 47.3894V47.3823H84.6552Z" fill="#6FB1C8"/>
<path d="M76.3878 37.5488H68.5765L72.4822 46.4259L76.3878 37.5488Z" fill="#4C86A0"/>
<path d="M27.5175 0L18.4163 17.7471H21.9869L27.5175 6.97131L33.0552 17.7471H36.6259L27.5175 0Z" fill="#94989B"/>
<path d="M59.2972 4.8178C59.2972 3.50005 58.7627 2.30983 57.8931 1.41716C57.0236 0.552834 55.8263 0.0214844 54.5007 0.0214844H43.2328V3.18833H54.5078C55.0708 3.18833 55.4486 3.44338 55.6552 3.64175C55.8334 3.81886 56.1399 4.22269 56.1399 4.81072C56.1399 5.44125 55.755 6.02928 55.1706 6.28433C54.9639 6.38351 54.7359 6.4331 54.5078 6.4331L43.2328 6.44727V17.7686H46.4186V9.60703H49.6044C50.7518 9.60703 51.7496 10.2163 52.3055 11.1302L52.3839 11.2861L55.7265 17.7756H59.2972L55.1136 9.55744C55.5982 9.50785 56.0544 9.38032 56.4891 9.17487C58.1497 8.41681 59.2972 6.74483 59.2972 4.8178Z" fill="#94989B"/>
<path d="M70.1659 0H66.9801V17.7471H70.1659V0Z" fill="#94989B"/>
<path d="M85.9309 0L76.8225 17.7471H80.3932L85.9309 6.97131L91.4615 17.7471H95.0321L85.9309 0Z" fill="#94989B"/>
<path d="M116.328 11.3071L101.667 0.0779313V17.7754H104.853V6.53914L119.521 17.7754V0.0283386L116.328 0V11.3071Z" fill="#94989B"/>
<path d="M127.168 0.0283203V3.19516H134.495V17.7754H137.681V3.19516H145V0.0283203H127.168Z" fill="#94989B"/>
</svg>
